<?xml version="1.0" standalone="no"?><!DOCTYPE svg PUBLIC "-//W3C//DTD SVG 1.1//EN" "http://www.w3.org/Graphics/SVG/1.1/DTD/svg11.dtd"><svg t="1614994920417" class="icon" viewBox="0 0 1024 1024" version="1.1" xmlns="http://www.w3.org/2000/svg" p-id="4525" xmlns:xlink="http://www.w3.org/1999/xlink" width="200" height="200"><defs><style type="text/css"></style></defs><path d="M381.0568 641.6a43.2 43.2 0 1 0 86.4 0 43.2 43.2 0 1 0-86.4 0Z" p-id="4526" fill="#2c2c2c"></path><path d="M381.0568 342.4a43.2 43.2 0 1 0 86.4 0 43.2 43.2 0 1 0-86.4 0Z" p-id="4527" fill="#2c2c2c"></path><path d="M595.4568 555.2a43.2 43.2 0 1 0 86.4 0 43.2 43.2 0 1 0-86.4 0Z" p-id="4528" fill="#2c2c2c"></path><path d="M843.4568 179.2C707.4568 43.2 518.6568-20.8 326.6568 9.6l-25.6 4.8-299.2 944c0 1.6-1.6 4.8-1.6 8-3.2 30.4 24 56 54.4 56 3.2 0 6.4 0 9.6-1.6 1.6 0 3.2-1.6 4.8-1.6l945.6-304 4.8-25.6c25.6-185.6-40-377.6-176-510.4zM677.0568 350.4c84.8 84.8 123.2 204.8 115.2 355.2l-432 140.8c-20.8-33.6-38.4-64-64-84.8-33.6-33.6-72-59.2-120-76.8l148.8-470.4c129.6-4.8 257.6 41.6 352 136zM150.6568 764.8c33.6 12.8 59.2 30.4 84.8 56 12.8 12.8 25.6 30.4 38.4 46.4L104.2568 923.2l46.4-158.4z m787.2-110.4L878.6568 672c4.8-158.4-43.2-291.2-140.8-384-102.4-97.6-240-158.4-380.8-158.4l12.8-43.2c153.6-12.8 307.2 38.4 414.4 148.8 110.4 115.2 166.4 268.8 153.6 419.2z" p-id="4529" fill="#2c2c2c"></path></svg>